<?xml version="1.0" encoding="utf-8"?>
<!-- Generator: Adobe Illustrator 27.5.0, SVG Export Plug-In . SVG Version: 6.00 Build 0)  -->
<svg version="1.1" xmlns="http://www.w3.org/2000/svg" xmlns:xlink="http://www.w3.org/1999/xlink" x="0px" y="0px"
	 viewBox="0 0 500 500" style="enable-background:new 0 0 500 500;" xml:space="preserve">
<g id="BACKGROUND">
	<rect x="0" style="fill:#FFFFFF;" width="499.999" height="500"/>
</g>
<g id="OBJECTS">
	<g>
		<path style="fill:#D91277;" d="M220.826,233.657c0.415-4.965,1.302-9.815,2.631-14.504h13.997
			c-1.751,4.981-2.888,10.215-3.34,15.615c-0.882,10.545,0.882,20.903,5.032,30.323h-14.342
			C221.308,255.143,219.921,244.48,220.826,233.657z"/>
		<g>
			<path style="fill:#1D3244;" d="M251.223,216.722c-18.805,22.237-50.042,28.567-75.965,15.392l-2.181-1.108l-16.526,3.926
				l1.067-16.075l-1.753-2.061c-19.856-23.35-19.879-57.312-0.055-80.756c10.776-12.743,25.869-20.526,42.499-21.918
				c16.629-1.392,32.806,3.778,45.548,14.553c8.605,7.277,14.937,16.526,18.578,26.883h13.997
				c-4.071-14.369-12.306-27.207-23.965-37.065c-15.462-13.076-35.091-19.35-55.271-17.659
				c-20.179,1.688-38.494,11.133-51.569,26.595c-11.665,13.795-18.03,31.328-17.921,49.37c0.102,16.915,5.854,33.319,16.251,46.501
				l-1.911,28.782l29.413-6.986c10.033,4.68,21.04,7.084,32.104,7.084c4.865,0,9.742-0.465,14.549-1.405
				c16.825-3.29,32.199-12.326,43.291-25.442c6.063-7.17,10.66-15.236,13.682-23.836h-14.342
				C258.349,206.933,255.166,212.059,251.223,216.722z"/>
			<path style="fill:#2BBAF9;" d="M279.174,170.061c-0.415-4.965-1.302-9.815-2.631-14.504h-13.997
				c1.751,4.981,2.888,10.215,3.34,15.615c0.882,10.544-0.882,20.903-5.032,30.323h14.342
				C278.692,191.548,280.079,180.884,279.174,170.061z"/>
		</g>
		<g>
			<g>
				<circle style="fill:#D91277;" cx="182.007" cy="178.307" r="6.805"/>
				<circle style="fill:#D91277;" cx="203.518" cy="178.307" r="6.805"/>
				<path style="fill:#D91277;" d="M225.029,171.503c-3.758,0-6.805,3.047-6.805,6.805c0,3.758,3.046,6.805,6.805,6.805
					s6.805-3.047,6.805-6.805C231.834,174.549,228.787,171.503,225.029,171.503z"/>
			</g>
		</g>
		<g>
			<path style="fill:#1D3244;" d="M248.777,280.317c18.805,22.237,50.042,28.567,75.965,15.392l2.181-1.108l16.526,3.926
				l-1.068-16.075l1.753-2.061c19.856-23.35,19.879-57.312,0.055-80.756c-10.776-12.743-25.869-20.527-42.499-21.918
				c-16.629-1.392-32.806,3.778-45.548,14.553c-8.605,7.276-14.937,16.526-18.578,26.883h-13.997
				c4.071-14.369,12.306-27.207,23.965-37.065c15.463-13.076,35.091-19.35,55.271-17.659c20.179,1.688,38.494,11.133,51.569,26.595
				c11.665,13.795,18.03,31.328,17.921,49.371c-0.102,16.915-5.854,33.319-16.251,46.501l1.911,28.782l-29.413-6.986
				c-10.033,4.68-21.041,7.084-32.104,7.084c-4.865,0-9.742-0.465-14.549-1.405c-16.825-3.29-32.199-12.326-43.291-25.442
				c-6.063-7.169-10.66-15.236-13.682-23.836h14.342C241.65,270.528,244.834,275.654,248.777,280.317z"/>
		</g>
		<g>
			<g>
				
					<ellipse transform="matrix(0.9997 -0.0251 0.0251 0.9997 -5.9091 8.0632)" style="fill:#2BBAF9;" cx="317.993" cy="239.236" rx="6.805" ry="6.805"/>
				<path style="fill:#2BBAF9;" d="M296.482,232.431c3.758,0,6.805,3.047,6.805,6.805c0,3.758-3.046,6.805-6.805,6.805
					c-3.758,0-6.805-3.047-6.805-6.805C289.677,235.478,292.724,232.431,296.482,232.431z"/>
				<path style="fill:#2BBAF9;" d="M274.971,232.431c3.758,0,6.805,3.047,6.805,6.805c0,3.758-3.047,6.805-6.805,6.805
					c-3.758,0-6.805-3.047-6.805-6.805C268.166,235.478,271.213,232.431,274.971,232.431z"/>
			</g>
		</g>
	</g>
</g>
<g id="TEXTS">
	<g>
		
			<text transform="matrix(1 0 0 1 159.5997 386.9794)" style="fill:#1D3244; font-family:'Lato-Semibold'; font-size:13px; letter-spacing:1;">your tagline goes here</text>
		<g>
			<text transform="matrix(1 0 0 1 92.5769 368.3573)"><tspan x="0" y="0" style="fill:#D91277; font-family:'Outfit-Black'; font-size:41.422px;">talking</tspan><tspan x="190.375" y="0" style="fill:#1D3244; font-family:'Outfit-Black'; font-size:41.422px;">logo</tspan></text>
		</g>
	</g>
</g>
</svg>
